<mxfile host="drawio-plugin" modified="2023-05-30T14:51:02.950Z" agent="5.0 (X11; Linux x86_64) AppleWebKit/537.36 (KHTML, like Gecko) Chrome/104.0.5112.102 Safari/537.36" version="20.5.3" etag="DEkOHk10gE1IgvrKKYGd" type="embed"><diagram id="Iq2xAphZTL3JiQJVDdVK" name="Page-1"><mxGraphModel dx="482" dy="433" grid="1" gridSize="10" guides="1" tooltips="1" connect="1" arrows="1" fold="1" page="1" pageScale="1" pageWidth="827" pageHeight="1169" math="0" shadow="0"><root><mxCell id="0"/><mxCell id="1" parent="0"/><mxCell id="3" value="MongoDb" style="shape=cylinder3;whiteSpace=wrap;html=1;boundedLbl=1;backgroundOutline=1;size=15;" vertex="1" parent="1"><mxGeometry x="340" y="390" width="60" height="80" as="geometry"/></mxCell><mxCell id="4" value="Agent &lt;br&gt;&quot;New Job&quot;" style="shape=process;whiteSpace=wrap;html=1;backgroundOutline=1;" vertex="1" parent="1"><mxGeometry x="170" y="200" width="120" height="60" as="geometry"/></mxCell><mxCell id="5" value="Web server" style="shape=process;whiteSpace=wrap;html=1;backgroundOutline=1;" vertex="1" parent="1"><mxGeometry x="170" y="310" width="120" height="60" as="geometry"/></mxCell><mxCell id="6" value="Agent &lt;br&gt;&quot;History Sent&quot;" style="shape=process;whiteSpace=wrap;html=1;backgroundOutline=1;" vertex="1" parent="1"><mxGeometry x="354" y="280" width="120" height="60" as="geometry"/></mxCell><mxCell id="7" value="Agent &lt;br&gt;&quot;Job Done&quot;" style="shape=process;whiteSpace=wrap;html=1;backgroundOutline=1;" vertex="1" parent="1"><mxGeometry x="520" y="280" width="120" height="60" as="geometry"/></mxCell><mxCell id="8" value="Agent &lt;br&gt;&quot;Execute&amp;nbsp;Job&quot;" style="shape=process;whiteSpace=wrap;html=1;backgroundOutline=1;" vertex="1" parent="1"><mxGeometry x="690" y="280" width="120" height="60" as="geometry"/></mxCell><mxCell id="11" value="AMQP Server" style="shape=hexagon;perimeter=hexagonPerimeter2;whiteSpace=wrap;html=1;fixedSize=1;" vertex="1" parent="1"><mxGeometry x="366" y="40" width="96" height="50" as="geometry"/></mxCell><mxCell id="12" value="Buildah" style="shape=hexagon;perimeter=hexagonPerimeter2;whiteSpace=wrap;html=1;fixedSize=1;" vertex="1" parent="1"><mxGeometry x="731" y="410" width="96" height="50" as="geometry"/></mxCell><mxCell id="13" value="Kubernetes" style="shape=hexagon;perimeter=hexagonPerimeter2;whiteSpace=wrap;html=1;fixedSize=1;" vertex="1" parent="1"><mxGeometry x="610" y="410" width="96" height="50" as="geometry"/></mxCell><mxCell id="14" value="Mercure" style="shape=hexagon;perimeter=hexagonPerimeter2;whiteSpace=wrap;html=1;fixedSize=1;" vertex="1" parent="1"><mxGeometry x="30" y="260" width="96" height="50" as="geometry"/></mxCell><mxCell id="15" value="" style="endArrow=classic;startArrow=classic;html=1;rounded=0;exitX=0.5;exitY=1;exitDx=0;exitDy=0;entryX=0;entryY=0;entryDx=0;entryDy=52.5;entryPerimeter=0;" edge="1" parent="1" source="5" target="3"><mxGeometry width="50" height="50" relative="1" as="geometry"><mxPoint x="400" y="300" as="sourcePoint"/><mxPoint x="330" y="440" as="targetPoint"/></mxGeometry></mxCell><mxCell id="16" value="" style="endArrow=classic;startArrow=classic;html=1;rounded=0;exitX=0.471;exitY=1.012;exitDx=0;exitDy=0;exitPerimeter=0;entryX=0;entryY=0.25;entryDx=0;entryDy=0;entryPerimeter=0;" edge="1" parent="1" source="4" target="3"><mxGeometry width="50" height="50" relative="1" as="geometry"><mxPoint x="400" y="300" as="sourcePoint"/><mxPoint x="450" y="250" as="targetPoint"/></mxGeometry></mxCell><mxCell id="17" value="" style="endArrow=classic;startArrow=classic;html=1;rounded=0;entryX=1.003;entryY=0.436;entryDx=0;entryDy=0;entryPerimeter=0;exitX=0.5;exitY=1;exitDx=0;exitDy=0;" edge="1" parent="1" source="6" target="3"><mxGeometry width="50" height="50" relative="1" as="geometry"><mxPoint x="400" y="300" as="sourcePoint"/><mxPoint x="370" y="380" as="targetPoint"/></mxGeometry></mxCell><mxCell id="18" value="" style="endArrow=classic;startArrow=classic;html=1;rounded=0;entryX=0.542;entryY=1.047;entryDx=0;entryDy=0;entryPerimeter=0;exitX=1;exitY=0;exitDx=0;exitDy=52.5;exitPerimeter=0;" edge="1" parent="1" source="3" target="7"><mxGeometry width="50" height="50" relative="1" as="geometry"><mxPoint x="390" y="410" as="sourcePoint"/><mxPoint x="440" y="360" as="targetPoint"/></mxGeometry></mxCell><mxCell id="19" value="" style="endArrow=classic;startArrow=classic;html=1;rounded=0;entryX=0.25;entryY=1;entryDx=0;entryDy=0;" edge="1" parent="1" source="13" target="8"><mxGeometry width="50" height="50" relative="1" as="geometry"><mxPoint x="390" y="410" as="sourcePoint"/><mxPoint x="440" y="360" as="targetPoint"/></mxGeometry></mxCell><mxCell id="20" value="" style="endArrow=classic;startArrow=classic;html=1;rounded=0;entryX=0.717;entryY=1.024;entryDx=0;entryDy=0;entryPerimeter=0;exitX=0.625;exitY=0;exitDx=0;exitDy=0;" edge="1" parent="1" source="12" target="8"><mxGeometry width="50" height="50" relative="1" as="geometry"><mxPoint x="390" y="410" as="sourcePoint"/><mxPoint x="440" y="360" as="targetPoint"/></mxGeometry></mxCell><mxCell id="21" value="" style="endArrow=classic;startArrow=classic;html=1;rounded=0;entryX=0;entryY=0.5;entryDx=0;entryDy=0;exitX=0.5;exitY=0;exitDx=0;exitDy=0;" edge="1" parent="1" source="14" target="4"><mxGeometry width="50" height="50" relative="1" as="geometry"><mxPoint x="390" y="410" as="sourcePoint"/><mxPoint x="440" y="360" as="targetPoint"/><Array as="points"><mxPoint x="78" y="230"/></Array></mxGeometry></mxCell><mxCell id="22" value="" style="endArrow=classic;startArrow=classic;html=1;rounded=0;entryX=0.5;entryY=1;entryDx=0;entryDy=0;exitX=0;exitY=0.5;exitDx=0;exitDy=0;" edge="1" parent="1" source="5" target="14"><mxGeometry width="50" height="50" relative="1" as="geometry"><mxPoint x="390" y="410" as="sourcePoint"/><mxPoint x="440" y="360" as="targetPoint"/></mxGeometry></mxCell><mxCell id="23" value="" style="endArrow=classic;startArrow=classic;html=1;rounded=0;entryX=0.162;entryY=1.022;entryDx=0;entryDy=0;entryPerimeter=0;" edge="1" parent="1" source="4" target="11"><mxGeometry width="50" height="50" relative="1" as="geometry"><mxPoint x="390" y="290" as="sourcePoint"/><mxPoint x="440" y="240" as="targetPoint"/></mxGeometry></mxCell><mxCell id="24" value="" style="endArrow=classic;startArrow=classic;html=1;rounded=0;entryX=0.375;entryY=1;entryDx=0;entryDy=0;" edge="1" parent="1" source="6" target="11"><mxGeometry width="50" height="50" relative="1" as="geometry"><mxPoint x="390" y="290" as="sourcePoint"/><mxPoint x="440" y="240" as="targetPoint"/></mxGeometry></mxCell><mxCell id="25" value="" style="endArrow=classic;startArrow=classic;html=1;rounded=0;entryX=0.219;entryY=1.063;entryDx=0;entryDy=0;entryPerimeter=0;exitX=0.579;exitY=0.03;exitDx=0;exitDy=0;exitPerimeter=0;" edge="1" parent="1" source="5" target="11"><mxGeometry width="50" height="50" relative="1" as="geometry"><mxPoint x="390" y="290" as="sourcePoint"/><mxPoint x="440" y="240" as="targetPoint"/></mxGeometry></mxCell><mxCell id="26" value="" style="endArrow=classic;startArrow=classic;html=1;rounded=0;entryX=0.625;entryY=1;entryDx=0;entryDy=0;" edge="1" parent="1" source="7" target="11"><mxGeometry width="50" height="50" relative="1" as="geometry"><mxPoint x="390" y="290" as="sourcePoint"/><mxPoint x="440" y="240" as="targetPoint"/></mxGeometry></mxCell><mxCell id="27" value="" style="endArrow=classic;startArrow=classic;html=1;rounded=0;entryX=1;entryY=0.5;entryDx=0;entryDy=0;exitX=0.5;exitY=0;exitDx=0;exitDy=0;" edge="1" parent="1" source="8" target="11"><mxGeometry width="50" height="50" relative="1" as="geometry"><mxPoint x="390" y="290" as="sourcePoint"/><mxPoint x="440" y="240" as="targetPoint"/></mxGeometry></mxCell></root></mxGraphModel></diagram></mxfile>